Coordinates
datacolumns 6
datarows 180
range 17.5 19.29
inDegrees=yes
Units are S.I. units (second, meters, Newtons, ...)
If the header above contains a line with 'inDegrees', this indicates whether rotational values are in degrees (yes) or radians (no).
endheader
time	foot_tx	hip_flexion_r	knee_angle_r	ankle_angle_r	lumbar
17.5	0.17989662	57.56640901	-63.42304907	-3.26356646	-28.19773759
17.51	0.17882079	57.72941431	-63.53867126	-3.13861922	-28.34598995
17.52	0.17772698	57.89950587	-63.65578585	-3.01123171	-28.50017561
17.53	0.17661564	58.07332953	-63.77411005	-2.88036605	-28.66101651
17.54	0.17548799	58.24836321	-63.89320829	-2.74561723	-28.83005164
17.55	0.17434956	58.38165618	-64.00829823	-2.60599309	-29.05497902
17.56	0.17320015	58.56506605	-64.12836966	-2.46500813	-29.23432674
17.57	0.17205487	58.70272828	-64.24125137	-2.32169604	-29.47566441
17.58	0.17092059	58.89988318	-64.35732147	-2.1805122	-29.66246802
17.59	0.16981736	59.10212874	-64.46642262	-2.04309434	-29.85567324
17.6	0.16877125	59.31274761	-64.5678892	-1.91180784	-30.051227
17.61	0.16781065	59.53424714	-64.65765729	-1.79038452	-30.24571457
17.62	0.16697127	59.80512097	-64.7328244	-1.68548473	-30.39507073
17.63	0.16628114	60.04088581	-64.78680015	-1.59397842	-30.59003551
17.64	0.16577159	60.33987573	-64.81674392	-1.52704316	-30.71992241
17.65	0.16544636	60.5972883	-64.82025192	-1.47615039	-30.89869347
17.66	0.16529127	60.83181238	-64.80049096	-1.44028265	-31.10581513
17.67	0.16530863	61.07295478	-64.75601593	-1.42334186	-31.30998511
17.68	0.1654339	61.31799658	-64.70038479	-1.41466902	-31.51661508
17.69	0.16563531	61.56986145	-64.63661939	-1.41157998	-31.72456898
17.7	0.16586385	61.86503413	-64.57489886	-1.40926494	-31.89419606
17.71	0.16609009	62.12953165	-64.51215987	-1.40080731	-32.10855848
17.72	0.16626539	62.46441545	-64.46399847	-1.38402331	-32.25495517
17.73	0.16638597	62.78602015	-64.42384859	-1.35436496	-32.42632406
17.74	0.16643296	63.12196882	-64.3944436	-1.31172344	-32.59298859
17.75	0.16641418	63.47132935	-64.37454237	-1.2570328	-32.75477853
17.76	0.16634454	63.83517777	-64.36068514	-1.19324118	-32.9104991
17.77	0.16623233	64.21069402	-64.34977956	-1.12232432	-33.06501774
17.78	0.166103	64.59876825	-64.33872892	-1.04769978	-33.21627211
17.79	0.16597233	65.00153444	-64.32443364	-0.97233562	-33.36250584
17.8	0.165856	65.42266322	-64.3047438	-0.89894632	-33.49936263
17.81	0.16576197	65.8641588	-64.27649688	-0.83010143	-33.62550122
17.82	0.16568117	66.33084629	-64.24394613	-0.76337823	-33.73490793
17.83	0.16563673	66.81910421	-64.20062781	-0.70307359	-33.83076262
17.84	0.16560247	67.32670897	-64.15584163	-0.64162614	-33.91317312
17.85	0.1655814	67.84742686	-64.10844447	-0.57824255	-33.98717429
17.86	0.16557282	68.37481697	-64.05868839	-0.5112894	-34.05824068
17.87	0.16554754	68.90161027	-64.01720117	-0.43207036	-34.13320481
17.88	0.16553183	69.43038227	-63.97584039	-0.34675007	-34.20987511
17.89	0.16552214	69.96073075	-63.9368468	-0.25395722	-34.28963385
17.9	0.16552192	70.49514562	-63.89932165	-0.15509885	-34.37095053
17.91	0.16553582	71.03815185	-63.86237057	-0.05154923	-34.4496068
17.92	0.16556586	71.59354477	-63.82491967	0.05567223	-34.52163538
17.93	0.1656114	72.16450184	-63.7854315	0.16576759	-34.58322224
17.94	0.16567169	72.75392704	-63.74233519	0.27806478	-34.63020034
17.95	0.16573876	73.36670627	-63.69401383	0.39222568	-34.65559709
17.96	0.16581302	74.00568333	-63.63593774	0.50610087	-34.65411766
17.97	0.16588431	74.6740665	-63.5668503	0.62001016	-34.61894378
17.98	0.16596064	75.37323372	-63.48219716	0.73148918	-34.54461325
17.99	0.16603484	76.08693833	-63.37856721	0.84119273	-34.4454889
18	0.16610628	76.82727912	-63.25928315	0.95031933	-34.30235178
18.01	0.16618548	77.57860437	-63.11788301	1.05656821	-34.12910064
18.02	0.16627006	78.33566784	-62.95637976	1.16191815	-33.92751004
18.03	0.16637671	79.09297663	-62.76986239	1.26337298	-33.70070443
18.04	0.16649934	79.83870523	-62.56011165	1.36365719	-33.45829185
18.05	0.16664542	80.5684564	-62.32627255	1.46258472	-33.20112287
18.06	0.1668054	81.27511889	-62.06931652	1.56223033	-32.93234907
18.07	0.16697627	81.94964618	-61.79007339	1.66428598	-32.65741468
18.08	0.1671379	82.59144788	-61.49283602	1.77249346	-32.370735
18.09	0.16728097	83.19263672	-61.18157013	1.89007803	-32.07568707
18.1	0.16740501	83.74678987	-60.85897475	2.0184844	-31.77427345
18.11	0.16751411	84.24616168	-60.52714993	2.15810613	-31.47076424
18.12	0.16762357	84.68066243	-60.18718171	2.30788695	-31.17431978
18.13	0.167744	85.04893796	-59.840128	2.46579732	-30.88567071
18.14	0.16787618	85.34431662	-59.48988293	2.6325469	-30.61235254
18.15	0.16802365	85.56855062	-59.13847684	2.80678097	-30.35391228
18.16	0.16818439	85.72325926	-58.78886853	2.98819191	-30.11016438
18.17	0.1683514	85.81198066	-58.44448583	3.1768504	-29.87921012
18.18	0.16852688	85.83053108	-58.10697194	3.37205691	-29.66862015
18.19	0.16870662	85.78143916	-57.77953239	3.57376196	-29.4788777
18.2	0.16890165	85.64076181	-57.46372234	3.78242798	-29.34232191
18.21	0.16912503	85.46555415	-57.15801212	3.99115255	-29.193332
18.22	0.16938798	85.19743953	-56.86342017	4.2034174	-29.10591091
18.23	0.16971137	84.85602814	-56.57500806	4.41377411	-29.0580618
18.24	0.17009973	84.44610813	-56.29023772	4.62045881	-29.04426002
18.25	0.17055937	83.97920013	-56.00325634	4.81965007	-29.04931504
18.26	0.17107141	83.46346738	-55.70933749	5.010677	-29.06077812
18.27	0.17162043	82.91258083	-55.40271456	5.19126529	-29.05906623
18.28	0.17216591	82.32840778	-55.08051109	5.36330951	-29.03944993
18.29	0.17269112	81.7243254	-54.73788921	5.52501496	-28.98398355
18.3	0.17316456	81.09842257	-54.37642502	5.67933482	-28.89564602
18.31	0.17358384	80.45848365	-53.99281181	5.82406002	-28.76738277
18.32	0.17394323	79.80043048	-53.58909434	5.96055909	-28.60825074
18.33	0.17425092	79.12799132	-53.16532858	6.08737684	-28.41867234
18.34	0.17451223	78.44007613	-52.72460279	6.20524126	-28.20543243
18.35	0.17474414	77.738993	-52.26751958	6.31243082	-27.97116607
18.36	0.17494363	77.02010474	-51.79734011	6.41080141	-27.72642559
18.37	0.17511604	76.28426707	-51.31545506	6.50024003	-27.47376684
18.38	0.17526542	75.53482887	-50.82196793	6.57992372	-27.21181315
18.39	0.17539344	74.77379894	-50.31700454	6.6494444	-26.94016664
18.4	0.17550294	74.00115046	-49.80074624	6.70847162	-26.66001065
18.41	0.17559702	73.21898788	-49.27235764	6.75626398	-26.36951654
18.42	0.17568028	72.42782349	-48.73094487	6.79216044	-26.06841229
18.43	0.17575775	71.62841411	-48.17637011	6.81616875	-25.75633961
18.44	0.17583315	70.82297686	-47.60812117	6.82818627	-25.4283672
18.45	0.17590171	70.00723912	-47.02615448	6.82944849	-25.09266575
18.46	0.17596761	69.18262111	-46.43217674	6.82106399	-24.74731873
18.47	0.17603291	68.35154042	-45.82767811	6.80417324	-24.38987397
18.48	0.17610155	67.51572013	-45.212251	6.77860748	-24.01899235
18.49	0.17616883	66.67078022	-44.58977442	6.74767042	-23.64095253
18.5	0.17624014	65.81971008	-43.95935307	6.7105654	-23.25247781
18.51	0.17631907	64.96062189	-43.32114607	6.66748787	-22.85581372
18.52	0.17640337	64.09905058	-42.67302908	6.61724009	-22.44511624
18.53	0.17649625	63.22424209	-42.01513931	6.56054041	-22.03199499
18.54	0.17659613	62.33527384	-41.34489059	6.49650786	-21.617252
18.55	0.17669949	61.42219615	-40.66282386	6.42677683	-21.21152804
18.56	0.1768116	60.48709717	-39.96621367	6.34927683	-20.81202274
18.57	0.1769231	59.52434213	-39.25657234	6.26597344	-20.42572357
18.58	0.17703381	58.5422666	-38.53431477	6.17607377	-20.04502219
18.59	0.17714368	57.54294012	-37.80124506	6.08006563	-19.66980134
18.6	0.17724809	56.53927877	-37.05659996	5.97685465	-19.28659525
18.61	0.17734707	55.523092	-36.30469826	5.86954844	-18.90618427
18.62	0.17743844	54.49336029	-35.54649728	5.75928136	-18.53038771
18.63	0.1775242	53.44940482	-34.78275831	5.64679676	-18.16062372
18.64	0.17759722	52.39326759	-34.01595482	5.5341247	-17.79412786
18.65	0.17766394	51.3225578	-33.24763854	5.4218695	-17.43513062
18.66	0.17771744	50.24542599	-32.47865089	5.31046411	-17.07487238
18.67	0.17776223	49.16087604	-31.71067488	5.20042632	-16.71579487
18.68	0.17779446	48.07614881	-30.94377743	5.09151623	-16.34966943
18.69	0.1778172	46.99059539	-30.1787627	4.98364569	-15.97901254
18.7	0.17782355	45.91375164	-29.4146005	4.87600698	-15.59289707
18.71	0.17781279	44.8410666	-28.65325493	4.76991693	-15.19745549
18.72	0.17778887	43.77450347	-27.89286348	4.66393355	-14.79223181
18.73	0.17775257	42.7136237	-27.13432412	4.55853898	-14.37810234
18.74	0.17770278	41.65768531	-26.37680783	4.45335977	-13.95832281
18.75	0.17763972	40.60761996	-25.62249149	4.34929561	-13.53357816
18.76	0.17756465	39.56479245	-24.87004895	4.24535252	-13.10577947
18.77	0.17748098	38.52835173	-24.12137635	4.14203268	-12.67971426
18.78	0.17738765	37.50579068	-23.37792309	4.04000499	-12.24753967
18.79	0.17729398	36.49695428	-22.64148198	3.93907188	-11.81475552
18.8	0.17719978	35.50321697	-21.91548932	3.84089657	-11.38306326
18.81	0.1771165	34.52600076	-21.20116903	3.74474138	-10.95564607
18.82	0.17704798	33.57021922	-20.50130356	3.65136317	-10.52905796
18.83	0.17700609	32.63585599	-19.81574357	3.5593969	-10.10756963
18.84	0.1769884	31.73063743	-19.14924451	3.47102867	-9.68217584
18.85	0.17700845	30.84811393	-18.49910136	3.38372265	-9.26504192
18.86	0.17705953	29.99555824	-17.86679403	3.29813287	-8.84796507
18.87	0.17713616	29.17097576	-17.25312099	3.21493808	-8.43410448
18.88	0.17722596	28.37454301	-16.65897439	3.13521381	-8.02362144
18.89	0.17731432	27.60525662	-16.08574673	3.06048423	-7.61820319
18.9	0.17739251	26.86473943	-15.53385052	2.99122249	-7.21622255
18.91	0.17745084	26.15614005	-15.00385894	2.92813004	-6.81320221
18.92	0.17749107	25.47535995	-14.49634296	2.87158864	-6.41486216
18.93	0.17751586	24.82240116	-14.00972131	2.82081298	-6.01954013
18.94	0.17752483	24.19675031	-13.54134134	2.77482865	-5.62453066
18.95	0.177517	23.59540734	-13.08750779	2.73231073	-5.22932155
18.96	0.17748952	23.01277594	-12.64517489	2.6924023	-4.83772842
18.97	0.17743851	22.44857188	-12.21060501	2.65352476	-4.44651029
18.98	0.17736125	21.90105798	-11.78108404	2.61440861	-4.05604892
18.99	0.17725825	21.36888945	-11.35527933	2.57415895	-3.66793464
19	0.17713475	20.8544724	-10.93345563	2.53215832	-3.28084972
19.01	0.17699851	20.35845297	-10.51780779	2.48877048	-2.89715265
19.02	0.17685213	19.88047082	-10.11241366	2.44601215	-2.51997111
19.03	0.17670277	19.42134109	-9.72032858	2.40490565	-2.15127378
19.04	0.17655161	18.97978867	-9.34281573	2.36614388	-1.79348897
19.05	0.17639869	18.55386165	-8.98052051	2.33014343	-1.44952154
19.06	0.17623621	18.14129475	-8.62905372	2.29531197	-1.1198665
19.07	0.17607344	17.73881745	-8.29031067	2.26241527	-0.80725221
19.08	0.17590247	17.34634739	-7.96122979	2.2302418	-0.51197059
19.09	0.17572814	16.96505302	-7.64213748	2.19865145	-0.23204592
19.1	0.17555254	16.59315989	-7.33374165	2.16815086	0.03028107
19.11	0.17538079	16.23466017	-7.03563936	2.138051	0.28097765
19.12	0.17521228	15.89047713	-6.7492202	2.10921653	0.52091496
19.13	0.17504456	15.55902608	-6.4737872	2.08182956	0.75038567
19.14	0.17487433	15.23997682	-6.20701451	2.05531429	0.97295478
19.15	0.17469557	14.92915347	-5.94566847	2.0291294	1.18849979
19.16	0.17450306	14.62253227	-5.68595147	2.00234115	1.39698985
19.17	0.17429071	14.31833359	-5.42342846	1.97341071	1.60136937
19.18	0.17405287	14.01544864	-5.15615426	1.94140673	1.79981412
19.19	0.17379137	13.71070772	-4.88169764	1.90489166	1.99010109
19.2	0.17350305	13.40837329	-4.59960871	1.86277981	2.17383781
19.21	0.17319637	13.10777084	-4.30901596	1.81403343	2.35137846
19.22	0.17286888	12.814205	-4.01368952	1.75949525	2.52159441
19.23	0.17253039	12.52935217	-3.71818761	1.70076779	2.68300916
19.24	0.17218998	12.25854256	-3.42869998	1.64008505	2.83663306
19.25	0.17186058	12.00668316	-3.15220765	1.57982733	2.98178257
19.26	0.17155546	11.77635591	-2.89583773	1.52303231	3.1174469
19.27	0.1712854	11.57532216	-2.66735877	1.47250427	3.24559301
19.28	0.17106067	11.42700828	-2.47527866	1.43142629	3.3921892
19.29	0.17089295	11.25620445	-2.31343057	1.40018871	3.46835333
